<?xml version="1.0" encoding="utf-8"?>
<!-- Generator: Adobe Illustrator 22.0.0, SVG Export Plug-In . SVG Version: 6.00 Build 0)  -->
<svg version="1.1" id="Layer_1" xmlns="http://www.w3.org/2000/svg" xmlns:xlink="http://www.w3.org/1999/xlink" x="0px" y="0px"
	 viewBox="0 0 24 24" style="enable-background:new 0 0 24 24;" xml:space="preserve">
<style type="text/css">
	.st0{fill:#5B4282;}
</style>
<path class="st0" d="M13.7652,12.15958c-0.33768-0.11111-0.82379-0.08724-1.45834-0.08724H9.75751v3.32757h2.72629
	c0.42593,0,0.72512-0.04557,0.89743-0.0774c0.30368-0.0544,0.55758-0.15972,0.76158-0.28675
	c0.20385-0.12674,0.37153-0.31901,0.50319-0.56149c0.13137-0.24248,0.19719-0.52619,0.19719-0.84347
	c0-0.37153-0.0952-0.65683-0.28574-0.93114C14.36706,12.42535,14.10302,12.27069,13.7652,12.15958z M13.41523,10.63816
	c0.33522-0.09954,0.58797-0.27344,0.75796-0.50449c0.17014-0.23119,0.25506-0.52532,0.25506-0.87443
	c0-0.33073-0.07943-0.62414-0.23814-0.87587c-0.15871-0.25174-0.38513-0.34911-0.67984-0.44213
	c-0.29471-0.09274-0.80006-0.06453-1.51621-0.06453H9.75751v2.89354h2.39975C12.74205,10.77025,13.16118,10.71527,13.41523,10.63816
	z M21.0423,5.36294c0-1.32842-1.07683-2.40525-2.40525-2.40525H5.36295c-1.32842,0-2.40525,1.07683-2.40525,2.40525v13.27411
	c0,1.32842,1.07683,2.40525,2.40525,2.40525h13.2741c1.32842,0,2.40525-1.07683,2.40525-2.40525V5.36294z M15.91394,14.92899
	c-0.19705,0.40119-0.44083,0.71051-0.73091,0.9281c-0.29022,0.21759-0.65409,0.4022-1.09144,0.51331
	c-0.43721,0.11126-0.97338,0.18692-1.60779,0.18692H8.45542V6.57461h3.96704c0.76158,0,1.37226,0.08811,1.83233,0.28964
	c0.46022,0.20182,0.82046,0.50594,1.08131,0.92521c0.26056,0.41927,0.39092,0.85461,0.39092,1.31236
	c0,0.42607-0.11574,0.82582-0.34679,1.20198c-0.23119,0.37645-0.5803,0.67911-1.04703,0.91031
	c0.60272,0.1768,1.06627,0.47801,1.39034,0.90394c0.32408,0.42607,0.48611,0.92912,0.48611,1.50927
	C16.20966,14.0942,16.11114,14.52794,15.91394,14.92899z"/>
</svg>
