<?xml version="1.0" encoding="utf-8"?>
<!-- Generator: Adobe Illustrator 22.0.0, SVG Export Plug-In . SVG Version: 6.00 Build 0)  -->
<svg version="1.1" id="Layer_1" xmlns="http://www.w3.org/2000/svg" xmlns:xlink="http://www.w3.org/1999/xlink" x="0px" y="0px"
	 viewBox="0 0 24 24" style="enable-background:new 0 0 24 24;" xml:space="preserve">
<style type="text/css">
	.st0{fill:#68217A;}
</style>
<g>
	<path class="st0" d="M19.88828,7.49826l0.04421-0.02947c-0.08841-0.16209-0.22104-0.30945-0.35365-0.38313l-7.11732-4.09651
		C12.34363,2.91548,12.18154,2.886,12.00471,2.886c-0.17683,0-0.33892,0.04421-0.45681,0.10315L4.47479,7.1004
		C4.22429,7.24775,4.04746,7.61615,4.04746,7.89612v8.20775c0,0.16209,0.02947,0.33892,0.13262,0.50101l-0.02947,0.01474
		c0.07368,0.11789,0.17683,0.22103,0.27998,0.27998l7.10258,4.11125c0.11789,0.07368,0.27998,0.10315,0.45681,0.10315
		s0.33892-0.04421,0.45681-0.10315l7.07311-4.11125c0.25051-0.14736,0.42733-0.51575,0.42733-0.79572V7.88139
		C19.96196,7.7635,19.94723,7.63088,19.88828,7.49826z M12.00471,17.81321c-3.21237,0-5.82058-2.60821-5.82058-5.82058
		s2.60821-5.82058,5.82058-5.82058c2.16614,0,4.0523,1.19359,5.05433,2.94713l-1.91564,1.10517
		c-0.6189-1.10517-1.79775-1.84196-3.13869-1.84196c-1.98931,0-3.61023,1.62092-3.61023,3.61023s1.62092,3.61023,3.61023,3.61023
		c1.34094,0,2.5198-0.73678,3.13869-1.82722l1.9009,1.11991C16.04228,16.63436,14.15611,17.81321,12.00471,17.81321z
		 M19.51989,11.69792h-0.47154l-0.13262,0.58943h0.60416v0.73678h-0.73678l-0.17683,0.88414h-0.72205l0.17683-0.88414h-0.55996
		l-0.17683,0.88414h-0.70731l0.17683-0.88414H16.4254v-0.73678h0.51575l0.13262-0.58943H16.4254v-0.73678h0.78099l0.17683-0.88414
		h0.72205l-0.17683,0.88414h0.55996l0.17683-0.88414h0.70731l-0.17683,0.88414h0.32418V11.69792z M17.64846,12.28734h0.55996
		l0.13262-0.58943h-0.55996L17.64846,12.28734z"/>
</g>
</svg>
