<?xml version="1.0" encoding="utf-8"?>
<!-- Generator: Adobe Illustrator 22.0.0, SVG Export Plug-In . SVG Version: 6.00 Build 0)  -->
<svg version="1.1" id="Layer_1" xmlns="http://www.w3.org/2000/svg" xmlns:xlink="http://www.w3.org/1999/xlink" x="0px" y="0px"
	 viewBox="0 0 24 24" style="enable-background:new 0 0 24 24;" xml:space="preserve">
<style type="text/css">
	.st0{fill:#1572B6;}
</style>
<path class="st0" d="M4.1,3l1.4,16.2L12,21l6.5-1.8L19.9,3C19.9,3,4.1,3,4.1,3z M16.9,6.7l-0.5,5.4l0,0l0,0.1v0L16.1,16l0,0.3
	L12,17.5v0l0,0l-4.1-1.1l-0.3-3.1h2l0.1,1.6l2.2,0.6l0,0v0l2.2-0.6l0.2-2.6H9.8l0-0.4l-0.1-1l0-0.5h5l0.2-2H7.2l0-0.4l-0.1-1l0-0.5
	h10C17,6.2,16.9,6.7,16.9,6.7z"/>
</svg>
