<?xml version="1.0" encoding="utf-8"?>
<!-- Generator: Adobe Illustrator 22.0.0, SVG Export Plug-In . SVG Version: 6.00 Build 0)  -->
<svg version="1.1" id="Layer_1" xmlns="http://www.w3.org/2000/svg" xmlns:xlink="http://www.w3.org/1999/xlink" x="0px" y="0px"
	 viewBox="0 0 24 24" style="enable-background:new 0 0 24 24;" xml:space="preserve">
<style type="text/css">
	.st0{fill:url(#SVGID_1_);}
	.st1{fill:url(#SVGID_2_);}
	.st2{fill:#14559A;}
	.st3{fill:url(#SVGID_3_);}
	.st4{fill:#3092C4;}
	.st5{fill:#1969BC;}
	.st6{fill:url(#SVGID_4_);}
	.st7{fill:url(#SVGID_5_);}
	.st8{fill:url(#SVGID_6_);}
	.st9{fill:#2B74B1;}
	.st10{fill:#125A9E;}
	.st11{fill:url(#SVGID_7_);}
	.st12{fill:url(#SVGID_8_);}
	.st13{fill:#0D82CA;}
	.st14{fill:url(#SVGID_9_);}
	.st15{fill:#127BCA;}
	.st16{fill:url(#SVGID_10_);}
	.st17{fill:url(#SVGID_11_);}
	.st18{fill:#05A1E6;}
	.st19{fill:url(#SVGID_12_);}
	.st20{fill:url(#SVGID_13_);}
	.st21{fill:url(#SVGID_14_);}
	.st22{fill:#079AE1;}
	.st23{fill:#1E5CB3;}
	.st24{fill:#1D60B5;}
	.st25{fill:#175FAB;}
	.st26{fill:url(#SVGID_15_);}
	.st27{fill:#7DCBEC;}
	.st28{fill:#5EC5ED;}
	.st29{fill:url(#SVGID_16_);}
	.st30{fill:url(#SVGID_17_);}
	.st31{fill:url(#SVGID_18_);}
</style>
<g>
	
		<linearGradient id="SVGID_1_" gradientUnits="userSpaceOnUse" x1="46.51868" y1="-523.14233" x2="46.57666" y2="-523.14233" gradientTransform="matrix(0 149.735 -149.735 0 -78321.86719 -6956.98877)">
		<stop  offset="0" style="stop-color:#0994DC"/>
		<stop  offset="0.35" style="stop-color:#66CEF5"/>
		<stop  offset="0.35" style="stop-color:#66CEF5"/>
		<stop  offset="0.846" style="stop-color:#127BCA"/>
		<stop  offset="0.846" style="stop-color:#127BCA"/>
		<stop  offset="1" style="stop-color:#127BCA"/>
	</linearGradient>
	<path class="st0" d="M9.22529,9.85863c0.65499,2.00294,0.90308,5.57581,2.81838,5.57581c0.14562,0,0.29317-0.01424,0.44101-0.04241
		c-1.74091-0.40587-1.94733-3.93989-3.00982-5.77022C9.39152,9.69759,9.30908,9.77648,9.22529,9.85863"/>
	
		<linearGradient id="SVGID_2_" gradientUnits="userSpaceOnUse" x1="46.60329" y1="-523.12823" x2="46.66112" y2="-523.12823" gradientTransform="matrix(0 153.55099 -153.55099 0 -80315.67969 -7147.70361)">
		<stop  offset="0" style="stop-color:#0E76BC"/>
		<stop  offset="0.36" style="stop-color:#36AEE8"/>
		<stop  offset="0.36" style="stop-color:#36AEE8"/>
		<stop  offset="0.846" style="stop-color:#00ADEF"/>
		<stop  offset="0.846" style="stop-color:#00ADEF"/>
		<stop  offset="1" style="stop-color:#00ADEF"/>
	</linearGradient>
	<path class="st1" d="M9.47486,9.62182c1.06249,1.83018,1.26891,5.3642,3.00982,5.77022
		c0.13687-0.02506,0.27389-0.06317,0.41121-0.11107c-1.56282-0.76576-1.99463-4.19746-3.20126-5.84955
		C9.62167,9.49221,9.54827,9.55583,9.47486,9.62182"/>
	<path class="st2" d="M11.00565,8.53353c-0.14532,0-0.29317,0.01424-0.44146,0.04241
		C10.17686,8.64904,9.78301,8.81587,9.38619,9.0684c0.10825,0.10707,0.21161,0.2294,0.30859,0.36301
		c0.40379-0.33498,0.80476-0.58248,1.2041-0.73136c0.15007-0.05561,0.2994-0.09728,0.44917-0.12486
		C11.23994,8.54791,11.12606,8.53353,11.00565,8.53353"/>
	
		<linearGradient id="SVGID_3_" gradientUnits="userSpaceOnUse" x1="52.94038" y1="-525.3335" x2="52.99821" y2="-525.3335" gradientTransform="matrix(0 -122.178 122.178 0 64197.16797 6483.37305)">
		<stop  offset="0" style="stop-color:#1C63B7"/>
		<stop  offset="0.5" style="stop-color:#33BDF2"/>
		<stop  offset="1" style="stop-color:#33BDF2;stop-opacity:0.42"/>
	</linearGradient>
	<path class="st3" d="M14.11586,14.57526c0.15986-0.12708,0.32001-0.26766,0.48046-0.42114
		c-0.66552-1.99345-0.90382-5.61763-2.83246-5.61763c-0.13791,0-0.277,0.0129-0.4158,0.03856
		C13.10483,9.01205,13.32993,12.8342,14.11586,14.57526"/>
	<path class="st4" d="M11.3482,8.5752c-0.1081-0.02743-0.22214-0.04182-0.3427-0.04182l0.75835,0.00282
		C11.62609,8.5362,11.48699,8.54895,11.3482,8.5752"/>
	<path class="st5" d="M14.08205,14.99862c-0.07533-0.07192-0.14695-0.15081-0.21739-0.23489
		c-0.32446,0.2297-0.64773,0.40394-0.96877,0.51738c0.11433,0.05576,0.234,0.09728,0.36123,0.12293
		c0.09846,0.02017,0.20063,0.03055,0.3077,0.03055c0.36049,0,0.6455-0.04271,0.8878-0.15897
		C14.31916,15.20326,14.19668,15.10984,14.08205,14.99862"/>
	
		<linearGradient id="SVGID_4_" gradientUnits="userSpaceOnUse" x1="46.78746" y1="-523.03119" x2="46.84544" y2="-523.03119" gradientTransform="matrix(0 159.425 -159.425 0 -83371.74219 -7451.74121)">
		<stop  offset="0" style="stop-color:#166AB8"/>
		<stop  offset="0.4" style="stop-color:#36AEE8"/>
		<stop  offset="0.4" style="stop-color:#36AEE8"/>
		<stop  offset="0.846" style="stop-color:#0798DD"/>
		<stop  offset="0.846" style="stop-color:#0798DD"/>
		<stop  offset="1" style="stop-color:#0798DD"/>
	</linearGradient>
	<path class="st6" d="M10.89873,8.70035c1.57349,0.823,1.71036,4.55009,2.96593,6.06338
		c0.08423-0.05932,0.16757-0.12219,0.25076-0.18848c-0.78593-1.74106-1.01059-5.56365-2.76707-6.00021
		C11.19843,8.60307,11.0488,8.6446,10.89873,8.70035"/>
	
		<linearGradient id="SVGID_5_" gradientUnits="userSpaceOnUse" x1="46.91186" y1="-523.15491" x2="46.96984" y2="-523.15491" gradientTransform="matrix(0 169.528 -169.528 0 -88677.625 -7945.45215)">
		<stop  offset="0" style="stop-color:#124379"/>
		<stop  offset="0.39" style="stop-color:#1487CB"/>
		<stop  offset="0.39" style="stop-color:#1487CB"/>
		<stop  offset="0.78" style="stop-color:#165197"/>
		<stop  offset="0.78" style="stop-color:#165197"/>
		<stop  offset="1" style="stop-color:#165197"/>
	</linearGradient>
	<path class="st7" d="M9.69463,9.43142c1.20663,1.65209,1.63844,5.08393,3.20126,5.8497
		c0.32119-0.11344,0.64446-0.28753,0.96877-0.51738c-1.25556-1.51329-1.39243-5.24023-2.96592-6.06338
		C10.49939,8.84894,10.09842,9.09643,9.69463,9.43142"/>
	
		<linearGradient id="SVGID_6_" gradientUnits="userSpaceOnUse" x1="988.3175" y1="1445.32739" x2="988.66113" y2="1445.32739" gradientTransform="matrix(4.038 0 0 4.038 -3983.06299 -5825.80322)">
		<stop  offset="0" style="stop-color:#33BDF2;stop-opacity:0.698"/>
		<stop  offset="1" style="stop-color:#1DACD8"/>
	</linearGradient>
	<path class="st8" d="M8.45345,9.81044c-0.18907,0.42752-0.38229,0.98968-0.61569,1.72326
		c0.46429-0.6544,0.92725-1.21804,1.38754-1.67492C9.16183,9.66393,9.09376,9.48406,9.02036,9.32406
		C8.83218,9.4679,8.64237,9.63012,8.45345,9.81044"/>
	<path class="st9" d="M9.18807,9.20053C9.13261,9.24027,9.07671,9.2809,9.02051,9.32391
		c0.0734,0.16015,0.14132,0.33988,0.20464,0.53488c0.08364-0.08185,0.16668-0.16104,0.24972-0.23682
		C9.38574,9.46878,9.29099,9.32747,9.18807,9.20053"/>
	<path class="st10" d="M9.38619,9.06826C9.3202,9.11007,9.25451,9.15426,9.18792,9.20038
		c0.10306,0.12679,0.19767,0.2684,0.28709,0.42173c0.0734-0.06643,0.14666-0.13035,0.21976-0.19085
		C9.59779,9.29781,9.49459,9.17532,9.38619,9.06826"/>
	
		<linearGradient id="SVGID_7_" gradientUnits="userSpaceOnUse" x1="53.02158" y1="-526.09351" x2="53.07941" y2="-526.09351" gradientTransform="matrix(0 -119.018 119.018 0 62632.85938 6325.56201)">
		<stop  offset="0" style="stop-color:#136AB4"/>
		<stop  offset="0.6" style="stop-color:#59CAF5;stop-opacity:0.549"/>
		<stop  offset="1" style="stop-color:#59CAF5;stop-opacity:0.235"/>
	</linearGradient>
	<path class="st11" d="M20.11904,8.38094c-0.88988,3.432-2.74868,6.18869-4.3069,6.88357h-0.00311l-0.08408,0.03603l-0.01023,0.004
		l-0.02388,0.00919l-0.01068,0.00445l-0.039,0.01379l-0.01602,0.00564l-0.01943,0.00638l-0.01868,0.00653l-0.01661,0.00564
		l-0.03322,0.01008l-0.01424,0.00371l-0.02239,0.00608l-0.01527,0.00415l-0.02447,0.00638l-0.02981,0.00652
		c0.07044,0.02595,0.14384,0.03915,0.22288,0.03915c1.4777,0,2.9677-2.64814,5.43301-7.05202h-0.96803
		C20.11889,8.3802,20.11904,8.38094,20.11904,8.38094z"/>
	
		<linearGradient id="SVGID_8_" gradientUnits="userSpaceOnUse" x1="987.09814" y1="1445.73511" x2="988.3728" y2="1445.73511" gradientTransform="matrix(4.038 0 0 4.038 -3983.06299 -5825.80322)">
		<stop  offset="0" style="stop-color:#05A1E6;stop-opacity:0.247"/>
		<stop  offset="1" style="stop-color:#05A1E6"/>
	</linearGradient>
	<path class="st12" d="M7.51671,8.67292l0.00282-0.00237l0.00341-0.00222h0.00193l0.02387-0.00919l0.00475-0.00237l0.00623-0.00252
		l0.02565-0.00919H7.5867L7.6435,8.62517l0.00845-0.00222l0.02432-0.00727l0.01112-0.00356l0.02447-0.00727L7.7212,8.60233
		l0.08126-0.02106l0.01112-0.00252l0.02373-0.0046L7.84888,8.5706l0.02387-0.00445h0.00563l0.04938-0.00919h0.00979l0.02284-0.004
		l0.0129-0.00222l0.0218-0.00326L8.0071,8.5451l0.05309-0.00475C8.00903,8.53561,7.95653,8.53234,7.90285,8.53234
		c-1.66425,0-3.95709,3.08767-4.98977,7.08643h0.19915c0.33054-0.58945,0.62741-1.14716,0.89893-1.67062
		c0.7235-2.83232,2.19675-4.76393,3.50555-5.27567"/>
	<path class="st13" d="M8.45345,9.81044c0.18907-0.18032,0.37873-0.34255,0.56691-0.48654
		C8.9775,9.22989,8.93301,9.1427,8.88527,9.06277C8.73312,9.24754,8.59403,9.49132,8.45345,9.81044"/>
	<path class="st13" d="M8.59017,8.6962c0.1087,0.09105,0.20612,0.2165,0.2951,0.36672
		c0.02803-0.0344,0.0565-0.06628,0.08601-0.09624C8.8476,8.85131,8.71414,8.7567,8.56912,8.68538l0.01779,0.00845L8.59017,8.6962"/>
	
		<linearGradient id="SVGID_9_" gradientUnits="userSpaceOnUse" x1="52.94626" y1="-524.37024" x2="53.00409" y2="-524.37024" gradientTransform="matrix(0 -121.865 121.865 0 63908.14062 6467.51318)">
		<stop  offset="0" style="stop-color:#318ED5"/>
		<stop  offset="1" style="stop-color:#38A7E4"/>
	</linearGradient>
	<path class="st14" d="M4.01131,13.94829c1.51744-2.92411,2.23634-4.77475,3.50555-5.27567
		C6.20821,9.18481,4.73466,11.11627,4.01131,13.94829"/>
	<path class="st15" d="M8.97113,8.96668C8.94162,8.99693,8.91344,9.02851,8.88512,9.06292
		C8.93287,9.1427,8.97721,9.22959,9.02051,9.32391c0.05605-0.043,0.11211-0.08349,0.16742-0.12338
		C9.11941,9.11586,9.0469,9.03726,8.97113,8.96668"/>
	
		<linearGradient id="SVGID_10_" gradientUnits="userSpaceOnUse" x1="53.06316" y1="-524.43945" x2="53.12114" y2="-524.43945" gradientTransform="matrix(0 -118.46 118.46 0 62131.30469 6301.11719)">
		<stop  offset="0" style="stop-color:#05A1E6"/>
		<stop  offset="1" style="stop-color:#05A1E6;stop-opacity:0.549"/>
	</linearGradient>
	<path class="st16" d="M4.70026,15.60572l-0.02758,0.00326H4.66749l-0.02343,0.00237H4.6402l-0.05576,0.00371H4.57866
		c1.53568-0.043,2.23783-0.81188,2.58616-1.92731c0.2647-0.84539,0.48223-1.55777,0.67279-2.15538
		c-0.64328,0.90545-1.28952,1.9847-1.93917,3.19399c-0.31319,0.58278-0.78964,0.82627-1.19817,0.87817"/>
	
		<linearGradient id="SVGID_11_" gradientUnits="userSpaceOnUse" x1="53.868" y1="-524.58514" x2="53.92598" y2="-524.58514" gradientTransform="matrix(0 -100.1 100.1 0 52517.55078 5407.80078)">
		<stop  offset="0" style="stop-color:#1959A6"/>
		<stop  offset="0.5" style="stop-color:#05A1E6"/>
		<stop  offset="0.5" style="stop-color:#05A1E6"/>
		<stop  offset="0.918" style="stop-color:#7EC5EA"/>
		<stop  offset="1" style="stop-color:#7EC5EA"/>
	</linearGradient>
	<path class="st17" d="M4.70026,15.60512c0.40854-0.05205,0.88499-0.29524,1.19817-0.87831
		c0.64965-1.2087,1.29619-2.28825,1.93888-3.19384c0.23385-0.73388,0.42677-1.2956,0.61599-1.72326
		c-1.28107,1.21938-2.56703,3.24693-3.75319,5.79468"/>
	<path class="st18" d="M4.01131,13.94844c-0.27152,0.52346-0.56839,1.08117-0.89908,1.67062h0.57892
		c0.07667-0.58544,0.18521-1.14346,0.32001-1.67033"/>
	
		<linearGradient id="SVGID_12_" gradientUnits="userSpaceOnUse" x1="53.39944" y1="-523.79547" x2="53.45727" y2="-523.79547" gradientTransform="matrix(-19.138 -108.537 108.537 -19.138 57879.94922 -4213.35693)">
		<stop  offset="0" style="stop-color:#165096"/>
		<stop  offset="1" style="stop-color:#0D82CA"/>
	</linearGradient>
	<path class="st19" d="M8.0071,8.54628L7.99479,8.54865L7.97314,8.55177L7.96039,8.55399l-0.02284,0.004L7.92777,8.56037
		l-0.04938,0.0086H7.87275L7.84873,8.57371L7.83672,8.57697l-0.02328,0.0046L7.80246,8.58424L7.72105,8.6053L7.71171,8.60797
		L7.68709,8.61523L7.67597,8.61835L7.6518,8.62561L7.6429,8.62799L7.5864,8.64786l-0.02565,0.0089L7.55007,8.6612L7.5262,8.6701
		L7.51819,8.67396c-1.26906,0.50077-1.98796,2.35142-3.5054,5.27552C3.878,14.4762,3.76886,15.03436,3.69279,15.6198H3.7739
		l0.55682-0.00237h0.2555l0.05561-0.00371h0.00356l0.02343-0.00237h0.00549l0.02758-0.00326
		c1.18631-2.5479,2.47227-4.5753,3.75319-5.79468C8.59596,9.49429,8.7349,9.2505,8.88675,9.06603
		C8.79778,8.91581,8.7005,8.79007,8.59195,8.69887L8.58884,8.6965L8.57075,8.68775L8.5528,8.6787L8.53545,8.67025l-0.02061-0.0086
		L8.49883,8.65468L8.46516,8.64059L8.45078,8.63525L8.42572,8.62517L8.41223,8.62072L8.37738,8.60871H8.37456L8.33423,8.59729
		L8.32518,8.59447L8.29122,8.58498L8.28336,8.58276C8.25593,8.57534,8.22761,8.56971,8.19899,8.56422L8.19024,8.56185
		L8.15361,8.55592L8.14634,8.55369l-0.0433-0.00578H8.09548L8.06197,8.5442L8.00888,8.5491"/>
	
		<linearGradient id="SVGID_13_" gradientUnits="userSpaceOnUse" x1="56.46582" y1="-528.04443" x2="56.52365" y2="-528.04443" gradientTransform="matrix(0 -56.721 56.721 0 29968.28711 3214.46704)">
		<stop  offset="0" style="stop-color:#05A1E6"/>
		<stop  offset="0.874" style="stop-color:#0495D6"/>
		<stop  offset="1" style="stop-color:#0495D6"/>
	</linearGradient>
	<path class="st20" d="M16.64314,10.28096c-0.29213,0.93526-0.52835,1.7068-0.73433,2.34163
		c0.8012-1.10253,1.5904-2.48933,2.34178-4.08966C17.37376,8.8083,16.90636,9.43853,16.64314,10.28096"/>
	
		<linearGradient id="SVGID_14_" gradientUnits="userSpaceOnUse" x1="46.62291" y1="-521.63593" x2="46.68074" y2="-521.63593" gradientTransform="matrix(-23.063 130.795 -130.795 -23.063 -67133.49219 -18120.41602)">
		<stop  offset="0" style="stop-color:#38A7E4;stop-opacity:0.329"/>
		<stop  offset="0.962" style="stop-color:#0E88D3"/>
		<stop  offset="0.962" style="stop-color:#0E88D3"/>
		<stop  offset="1" style="stop-color:#0E88D3"/>
	</linearGradient>
	<path class="st21" d="M15.93418,15.20623c-0.04078,0.02076-0.08186,0.04048-0.12204,0.05843
		c1.55822-0.69503,3.41717-3.45172,4.3069-6.88372h-0.18032C17.89411,12.03344,17.2366,14.47857,15.93418,15.20623"/>
	<path class="st22" d="M14.91662,14.89942c0.33914-0.41387,0.6151-1.11736,0.9922-2.27683
		c-0.43493,0.59746-0.87268,1.11098-1.31087,1.52975l-0.00222,0.00371c0.09564,0.28635,0.20049,0.53918,0.32001,0.74322"/>
	<path class="st5" d="M14.91662,14.89942c-0.11537,0.14087-0.23771,0.24809-0.37354,0.32757
		c-0.02966,0.01735-0.05991,0.03366-0.09046,0.04849c0.14354,0.07741,0.29999,0.12931,0.47541,0.14992l0.0777,0.00682h0.0046
		l0.03737,0.00237h0.12679l0.01438-0.00237l0.02803-0.00237h0.01364l0.0304-0.00326h0.00252l0.00934-0.00222l0.03248-0.00504
		h0.00949l0.03648-0.00608h0.00593L15.43,15.39782c-0.20123-0.07355-0.36954-0.2472-0.51441-0.49439"/>
	<path class="st23" d="M12.04382,15.43459c0.14562,0,0.29302-0.01424,0.44086-0.04271
		c0.13702-0.02476,0.27404-0.06287,0.41121-0.11077c0.11433,0.05576,0.23415,0.09728,0.36108,0.12323
		c0.09846,0.02002,0.20078,0.0304,0.308,0.0304h-1.52115V15.43459z"/>
	<path class="st23" d="M13.56497,15.43459c0.36019,0,0.6455-0.04271,0.88766-0.15911
		c0.14354,0.07756,0.29999,0.12931,0.47541,0.15007l0.0777,0.00667h0.0046l0.03737,0.00237h0.04478H13.56497z"/>
	<path class="st24" d="M15.09249,15.43459h0.08319l0.01438-0.00237l0.02832-0.00237h0.01364l0.03025-0.00326h0.00252
		l0.00919-0.00237l0.03248-0.00489l0.00994-0.00222l0.03663-0.00593h0.00578l0.07281-0.01542
		c0.07044,0.02595,0.14384,0.03915,0.22288,0.03915l-0.56172,0.00237C15.09278,15.43726,15.09249,15.43459,15.09249,15.43459z"/>
	<path class="st25" d="M14.59676,14.15619v-0.00237c-0.16045,0.15348-0.3206,0.29406-0.48046,0.42114
		c-0.08349,0.06629-0.16682,0.12916-0.25105,0.18848c0.07059,0.08423,0.14221,0.16312,0.21769,0.23504
		c0.11448,0.11107,0.23682,0.20464,0.37043,0.27685c0.0304-0.01498,0.0608-0.03129,0.09031-0.04849
		c0.13613-0.07948,0.25817-0.18684,0.37369-0.32757c-0.11952-0.20405-0.22436-0.45703-0.31986-0.74322"/>
	
		<linearGradient id="SVGID_15_" gradientUnits="userSpaceOnUse" x1="46.01855" y1="-522.10547" x2="46.07639" y2="-522.10547" gradientTransform="matrix(0 123.742 -123.742 0 -64588.94531 -5686.05908)">
		<stop  offset="0" style="stop-color:#168CD4"/>
		<stop  offset="0.5" style="stop-color:#1C87CC"/>
		<stop  offset="1" style="stop-color:#154B8D"/>
	</linearGradient>
	<path class="st26" d="M19.3678,8.38094h-0.90768l-0.14384,0.00697l-0.06688,0.14325
		c-0.75153,1.60048-1.54042,2.98728-2.34163,4.08981c-0.37665,1.15932-0.65306,1.86295-0.99205,2.27668
		c0.14488,0.24735,0.31348,0.42114,0.51397,0.49484l0.01572-0.00341h0.00326l0.01112-0.00237l0.02521-0.00623l0.01498-0.0043
		l0.02239-0.00578l0.01394-0.004l0.03351-0.01008l0.01661-0.00564l0.01868-0.00682l0.01928-0.00608l0.01572-0.00593l0.03915-0.01379
		l0.01083-0.004l0.02402-0.00934l0.01008-0.00371l0.08423-0.03603h0.00296c0.04019-0.01765,0.08111-0.03766,0.12175-0.05842
		c1.30272-0.7278,1.96038-3.17279,4.00498-6.82514h-0.57106C19.36706,8.38138,19.3678,8.38094,19.3678,8.38094z"/>
	<path class="st27" d="M8.06048,8.54153l0.00934,0.00237l0.02373,0.00252h0.00801l0.0433,0.00564l0.00727,0.00237l0.03648,0.00608
		L8.1978,8.56274l0.08408,0.01868L8.28959,8.5838L8.3234,8.59329L8.33274,8.5961l0.04019,0.01142l0.00311,0.00237l0.03514,0.01201
		l0.01335,0.0043l0.02521,0.01023l0.01424,0.00504l0.03351,0.01394L8.5138,8.66239l0.02017,0.00875l0.01779,0.00845l0.01765,0.00919
		c0.14517,0.07118,0.27864,0.16623,0.40231,0.28145c0.04567-0.0479,0.09313-0.0909,0.14265-0.1296
		C8.84404,8.64889,8.53753,8.53961,8.18445,8.53961c-0.04093,0-0.08185,0.00237-0.12338,0.00549"/>
	<path class="st28" d="M8.97113,8.96668c0.07578,0.07044,0.14829,0.14903,0.2168,0.23385
		C9.25436,9.15441,9.3202,9.10993,9.38619,9.0684c-0.08645-0.08645-0.17765-0.1643-0.2727-0.23133
		C9.0641,8.87563,9.0168,8.91893,8.97113,8.96668"/>
	<g transform="matrix(5.048 0 0 -5.048 -9064.26 2270.61)">
		
			<linearGradient id="SVGID_16_" gradientUnits="userSpaceOnUse" x1="2150.57617" y1="508.46454" x2="2150.63403" y2="508.46454" gradientTransform="matrix(143.88315 -59.67745 -59.67745 -143.88315 -277290.625 201948.59375)">
			<stop  offset="0" style="stop-color:#97D6EE"/>
			<stop  offset="0.703" style="stop-color:#55C1EA"/>
			<stop  offset="1" style="stop-color:#55C1EA"/>
		</linearGradient>
		<path class="st29" d="M1797.203,448.10992l0.02454,0.00104c0.06995,0,0.13062-0.02164,0.1842-0.0596
			c0.0564,0.04462,0.12476,0.06021,0.21973,0.06021h-0.45959L1797.203,448.10992"/>
	</g>
	<g transform="matrix(5.048 0 0 -5.048 -9064.26 2270.61)">
		
			<linearGradient id="SVGID_17_" gradientUnits="userSpaceOnUse" x1="2150.95581" y1="508.2276" x2="2151.01367" y2="508.2276" gradientTransform="matrix(113.64057 51.51484 51.51484 -113.64057 -268819.6875 -52602.86719)">
			<stop  offset="0" style="stop-color:#7ACCEC"/>
			<stop  offset="1" style="stop-color:#3FB7ED"/>
		</linearGradient>
		<path class="st30" d="M1797.63147,448.11157c-0.09497,0-0.16309-0.01559-0.21985-0.06021
			c0.01868-0.01321,0.03687-0.02863,0.05408-0.04584c0.07874,0.04999,0.15649,0.08319,0.2334,0.0976
			c0.0293,0.00546,0.05847,0.0083,0.08728,0.0083h-0.15491V448.11157L1797.63147,448.11157z"/>
	</g>
	
		<linearGradient id="SVGID_18_" gradientUnits="userSpaceOnUse" x1="45.89717" y1="-522.19159" x2="45.955" y2="-522.19159" gradientTransform="matrix(0 121.032 -121.032 0 -63185.42969 -5546.26807)">
		<stop  offset="0" style="stop-color:#1DA7E7"/>
		<stop  offset="1" style="stop-color:#37ABE7;stop-opacity:0"/>
	</linearGradient>
	<path class="st31" d="M15.90882,12.62319c0.20627-0.63527,0.4419-1.40652,0.73462-2.34207
		c0.26351-0.84287,0.73032-1.4731,1.60671-1.74803l0.06762-0.14325c-1.42891,0.08556-2.0968,0.81247-2.43268,1.8889
		c-0.58782,1.87926-0.94386,3.09746-1.2867,3.87375C15.03614,13.73387,15.47389,13.22005,15.90882,12.62319"/>
</g>
</svg>
