<?xml version="1.0" encoding="utf-8"?>
<!-- Generator: Adobe Illustrator 22.0.0, SVG Export Plug-In . SVG Version: 6.00 Build 0)  -->
<svg version="1.1" id="Layer_1" xmlns="http://www.w3.org/2000/svg" xmlns:xlink="http://www.w3.org/1999/xlink" x="0px" y="0px"
	 viewBox="0 0 24 24" style="enable-background:new 0 0 24 24;" xml:space="preserve">
<style type="text/css">
	.st0{fill:#61DAFB;}
</style>
<g>
	<circle class="st0" cx="12" cy="12.00255" r="1.71576"/>
	<path class="st0" d="M18.51687,9.17306c-0.33111-0.1204-0.67727-0.24081-1.03849-0.34616
		c0.0903-0.36121,0.16556-0.72242,0.22576-1.06859c0.31606-1.98667-0.0301-3.38636-0.99333-3.92818
		c-0.28596-0.16556-0.60202-0.24081-0.96323-0.24081c-1.05354,0-2.39303,0.78263-3.74758,2.09202
		c-1.35455-1.30939-2.69404-2.09202-3.74758-2.09202c-0.36121,0-0.67727,0.07525-0.96323,0.24081
		C6.32595,4.38699,5.97979,5.78669,6.29585,7.75831c0.0602,0.34616,0.13545,0.70737,0.22576,1.06859
		C6.1604,8.93225,5.81424,9.0376,5.48313,9.17306c-1.88131,0.72242-2.90475,1.71576-2.90475,2.8295s1.03849,2.10707,2.90475,2.8295
		c0.33111,0.12041,0.67727,0.24081,1.03849,0.34616c-0.0903,0.36121-0.16556,0.72242-0.22576,1.06859
		c-0.31606,1.98667,0.0301,3.38636,0.99333,3.92818c0.28596,0.16556,0.60202,0.24081,0.96323,0.24081
		c1.06859,0,2.40808-0.78263,3.74758-2.09202c1.35455,1.30939,2.69404,2.09202,3.74758,2.09202
		c0.36121,0,0.67727-0.07525,0.96323-0.24081c0.96323-0.55687,1.30939-1.95657,0.99333-3.92818
		c-0.0602-0.34616-0.13545-0.70737-0.22576-1.06859c0.36121-0.10535,0.70737-0.21071,1.03849-0.34616
		c1.88131-0.72242,2.90475-1.71576,2.90475-2.8295S20.39819,9.89548,18.51687,9.17306z M16.2894,4.58265
		c0.61707,0.36121,0.82778,1.47495,0.57192,3.05525c-0.04515,0.31606-0.12041,0.64717-0.21071,0.99333
		c-0.78263-0.18061-1.61041-0.30101-2.48334-0.37626c-0.51172-0.72242-1.03849-1.3696-1.56525-1.95657
		c1.11374-1.09869,2.24253-1.85121,3.16061-1.85121C15.95829,4.4472,16.13889,4.49235,16.2894,4.58265z M14.60374,13.5076
		c-0.27091,0.48162-0.58697,0.96323-0.91808,1.44485c-0.55687,0.04515-1.11374,0.0602-1.68566,0.0602
		c-0.58697,0-1.14384-0.01505-1.68566-0.0602c-0.33111-0.48162-0.63212-0.96323-0.90303-1.44485
		c-0.28596-0.49667-0.55687-1.00838-0.79768-1.50505c0.24081-0.49667,0.51172-1.00838,0.79768-1.50505
		c0.27091-0.48162,0.58697-0.96323,0.91808-1.44485c0.55687-0.04515,1.11374-0.0602,1.68566-0.0602
		c0.58697,0,1.14384,0.01505,1.68566,0.0602c0.33111,0.48162,0.63212,0.96323,0.90303,1.44485
		c0.28596,0.49667,0.55687,1.00838,0.79768,1.50505C15.14556,12.49922,14.8897,12.99588,14.60374,13.5076z M15.85293,13.01093
		c0.22576,0.52677,0.40636,1.03849,0.57192,1.5502c-0.51172,0.1204-1.05354,0.21071-1.62546,0.28596
		c0.18061-0.28596,0.37626-0.58697,0.54182-0.90303C15.52182,13.62801,15.68738,13.31195,15.85293,13.01093z M12,17.08962
		c-0.36121-0.39131-0.70737-0.81273-1.03849-1.24919c0.34616,0.01505,0.69232,0.0301,1.03849,0.0301
		c0.34616,0,0.69232-0.01505,1.03849-0.0301C12.70738,16.2769,12.36121,16.69831,12,17.08962z M9.20061,14.83205
		c-0.57192-0.07525-1.11374-0.16556-1.62546-0.28596c0.16556-0.49667,0.34616-1.02343,0.57192-1.5502
		c0.16556,0.30101,0.33111,0.61707,0.51172,0.91808C8.83939,14.24508,9.02,14.53104,9.20061,14.83205z M8.14707,10.99417
		c-0.22576-0.52677-0.40636-1.03849-0.57192-1.5502C8.08687,9.32356,8.62869,9.23326,9.20061,9.158
		C9.02,9.44396,8.82434,9.74497,8.65879,10.06104C8.47818,10.3771,8.31262,10.69316,8.14707,10.99417z M12,6.91548
		c0.36121,0.39131,0.70737,0.81273,1.03849,1.24919C12.69232,8.14962,12.34616,8.13457,12,8.13457s-0.69232,0.01505-1.03849,0.0301
		C11.29263,7.72821,11.63879,7.30679,12,6.91548z M15.34122,10.07609L14.7994,9.17306
		c0.57192,0.07525,1.11374,0.16556,1.62546,0.28596c-0.16556,0.49667-0.34616,1.02343-0.57192,1.5502
		C15.68738,10.69316,15.52182,10.3771,15.34122,10.07609z M7.13869,7.6379C6.88283,6.0576,7.09353,4.94386,7.7106,4.58265
		C7.86111,4.49235,8.04172,4.4472,8.23737,4.4472c0.90303,0,2.03182,0.73747,3.16061,1.85121
		c-0.52677,0.57192-1.05354,1.23414-1.56525,1.95657C8.9598,8.33023,8.13202,8.46568,7.34939,8.63124
		C7.25909,8.28508,7.19889,7.95396,7.13869,7.6379z M3.42121,12.00255c0-0.70737,0.85788-1.4599,2.36293-2.01677
		c0.30101-0.1204,0.63212-0.22576,0.96323-0.31606c0.24081,0.75253,0.54182,1.5502,0.90303,2.34788
		c-0.36121,0.79768-0.67727,1.5803-0.90303,2.33283C4.6704,13.74841,3.42121,12.84538,3.42121,12.00255z M7.7106,19.42245
		c-0.61707-0.36121-0.82778-1.47495-0.57192-3.05525c0.04515-0.31606,0.1204-0.64717,0.21071-0.99333
		c0.78263,0.18061,1.61041,0.30101,2.48334,0.37626c0.51172,0.72242,1.03849,1.3696,1.56525,1.95657
		c-1.11374,1.09869-2.24253,1.85121-3.16061,1.85121C8.04172,19.55791,7.86111,19.51276,7.7106,19.42245z M16.86132,16.3672
		c0.25586,1.5803,0.04515,2.69404-0.57192,3.05525c-0.15051,0.0903-0.33111,0.13545-0.52677,0.13545
		c-0.90303,0-2.03182-0.73747-3.16061-1.85121c0.52677-0.57192,1.05354-1.23414,1.56525-1.95657
		c0.87293-0.07525,1.70071-0.21071,2.48333-0.37626C16.74091,15.72003,16.80112,16.05114,16.86132,16.3672z M18.21586,14.01932
		c-0.30101,0.12041-0.63212,0.22576-0.96323,0.31606c-0.24081-0.75253-0.54182-1.5502-0.90303-2.34788
		c0.36121-0.79768,0.67727-1.5803,0.90303-2.33283c2.07697,0.60202,3.32616,1.50505,3.32616,2.34788
		C20.57879,12.70992,19.70586,13.46245,18.21586,14.01932z"/>
</g>
</svg>
