<?xml version="1.0" encoding="utf-8"?>
<!-- Generator: Adobe Illustrator 22.0.0, SVG Export Plug-In . SVG Version: 6.00 Build 0)  -->
<svg version="1.1" id="Layer_1" xmlns="http://www.w3.org/2000/svg" xmlns:xlink="http://www.w3.org/1999/xlink" x="0px" y="0px"
	 viewBox="0 0 185 185" style="enable-background:new 0 0 185 185;" xml:space="preserve">
<style type="text/css">
	.st0{fill:url(#SVGID_1_);}
	.st1{fill:#FF7F18;}
</style>
<g>
	
		<radialGradient id="SVGID_1_" cx="-1052.1296" cy="305.5244" r="0.76" gradientTransform="matrix(112.3075 0 0 -108.734 118235.2266 33283.0977)" gradientUnits="userSpaceOnUse">
		<stop  offset="0" style="stop-color:#423325;stop-opacity:0.98"/>
		<stop  offset="1" style="stop-color:#1C0A00"/>
	</radialGradient>
	<path class="st0" d="M36.2,37.7h112.3V147H36.2V37.7z"/>
	<path class="st1" d="M36.2,37.7h112.3V147H36.2V37.7z M31.1,152.1h122.5V32.6H31.1V152.1z M111.3,75.2c0-0.4,0.2-0.6,0.6-0.6h8
		c0.4,0,0.6,0.2,0.6,0.6v40.3c0,0.4-0.1,0.6-0.6,0.6h-7.9c-0.5,0-0.7-0.3-0.7-0.7L111.3,75.2L111.3,75.2L111.3,75.2z M110.8,63.6
		c0-3.3,2.3-5.2,5.2-5.2c3.1,0,5.2,2.1,5.2,5.2c0,3.4-2.2,5.2-5.3,5.2C112.9,68.8,110.8,67,110.8,63.6z M87.8,92
		c-1.4-5.7-4.8-18-6.1-24h-0.1c-1.1,6-3.8,16.1-5.9,24H87.8z M73.6,100.3l-4,15.3c-0.1,0.4-0.3,0.5-0.8,0.5h-7.5
		c-0.5,0-0.6-0.2-0.5-0.8l14.5-50.7c0.3-0.9,0.4-1.7,0.5-4.2c0-0.4,0.2-0.5,0.4-0.5h10.7c0.4,0,0.5,0.1,0.6,0.5l16.2,55.1
		c0.1,0.4,0,0.7-0.4,0.7h-8.5c-0.4,0-0.7-0.1-0.8-0.5l-4.2-15.4H73.6L73.6,100.3z"/>
</g>
</svg>
