<?xml version="1.0" encoding="utf-8"?>
<!-- Generator: Adobe Illustrator 22.0.0, SVG Export Plug-In . SVG Version: 6.00 Build 0)  -->
<svg version="1.1" id="Layer_1" xmlns="http://www.w3.org/2000/svg" xmlns:xlink="http://www.w3.org/1999/xlink" x="0px" y="0px"
	 viewBox="0 0 185 185" style="enable-background:new 0 0 185 185;" xml:space="preserve">
<style type="text/css">
	.st0{fill:#0669AC;}
	.st1{fill:#343433;}
</style>
<path class="st0" d="M8.9,83.7c-2.8,4-2.4,9.2-0.3,13.5c0,0.1,0.1,0.2,0.2,0.3c0,0.1,0.1,0.1,0.1,0.2c0,0,0,0.1,0.1,0.1
	C8.9,97.9,9,97.9,9,98c0.1,0.1,0.1,0.2,0.2,0.3c0,0.1,0.1,0.1,0.1,0.2c0.1,0.1,0.2,0.2,0.2,0.4c0,0.1,0.1,0.1,0.1,0.2
	c0.1,0.2,0.2,0.3,0.3,0.5c0,0,0,0,0,0c0,0,0,0.1,0.1,0.1c0.1,0.1,0.2,0.3,0.3,0.4c0,0.1,0.1,0.1,0.1,0.1c0.1,0.1,0.2,0.2,0.3,0.4
	c0,0,0.1,0.1,0.1,0.1c0.1,0.2,0.3,0.3,0.4,0.5c0,0,0,0,0,0c0,0,0,0,0,0c0.1,0.1,0.3,0.3,0.4,0.4c0,0,0.1,0.1,0.1,0.1
	c0.1,0.1,0.2,0.2,0.3,0.3c0,0,0.1,0.1,0.1,0.1c0.1,0.1,0.3,0.3,0.4,0.4c0,0,0,0,0,0c0,0,0.1,0,0.1,0.1c0.1,0.1,0.3,0.2,0.4,0.3
	c0.1,0,0.1,0.1,0.2,0.1c0.1,0.1,0.2,0.2,0.3,0.3c0.1,0,0.1,0.1,0.2,0.1c0.1,0.1,0.3,0.2,0.4,0.3c0,0,0.1,0.1,0.1,0.1c0,0,0,0,0,0
	c0.1,0.1,0.2,0.2,0.4,0.2c0.1,0,0.1,0.1,0.2,0.1c0.2,0.1,0.4,0.2,0.6,0.4c0.1,0,0.1,0.1,0.2,0.1c0.1,0.1,0.3,0.2,0.4,0.2
	c0.1,0,0.2,0.1,0.2,0.1c0.1,0.1,0.2,0.1,0.3,0.2c0,0,0.1,0,0.1,0c0,0,0.1,0,0.1,0.1c0.2,0.1,0.3,0.2,0.5,0.2c0,0,0.1,0,0.1,0
	c0.2,0.1,0.4,0.2,0.6,0.2c0,0,0.1,0,0.1,0.1c0.2,0.1,0.4,0.1,0.5,0.2c0,0,0,0,0.1,0c0.2,0.1,0.4,0.1,0.6,0.2c0,0,0.1,0,0.1,0
	c0.2,0.1,0.4,0.1,0.6,0.2c13.5,2.5,17.4-8.1,17.4-8.1c-3.3,4.3-9.1,5.4-14.7,4.2c-0.2,0-0.4-0.1-0.6-0.2c0,0-0.1,0-0.2,0
	c-0.2-0.1-0.4-0.1-0.6-0.2c0,0-0.1,0-0.1,0c-0.2-0.1-0.3-0.1-0.5-0.2c0,0-0.1,0-0.1-0.1c-0.2-0.1-0.4-0.2-0.6-0.2c0,0-0.1,0-0.1,0
	c-0.2-0.1-0.3-0.1-0.5-0.2c0,0-0.1,0-0.1-0.1c-0.1-0.1-0.2-0.1-0.4-0.2c-0.1,0-0.2-0.1-0.2-0.1c-0.1-0.1-0.3-0.2-0.4-0.2
	c0,0-0.1-0.1-0.1-0.1c-0.2-0.1-0.4-0.2-0.6-0.4c-0.1,0-0.1-0.1-0.2-0.1c-0.1-0.1-0.3-0.2-0.4-0.3c0,0-0.1-0.1-0.1-0.1
	c-0.1-0.1-0.3-0.2-0.4-0.3c-0.1,0-0.1-0.1-0.2-0.1c-0.1-0.1-0.2-0.2-0.3-0.3c-0.1,0-0.1-0.1-0.2-0.1c-0.2-0.1-0.3-0.2-0.4-0.4
	c0,0,0,0-0.1,0c-0.2-0.1-0.3-0.3-0.5-0.4c0,0-0.1-0.1-0.1-0.1c-0.1-0.1-0.2-0.2-0.3-0.3c0,0-0.1-0.1-0.1-0.1
	c-0.1-0.1-0.3-0.3-0.4-0.4c0,0,0,0,0,0c-0.1-0.2-0.3-0.3-0.4-0.5c0,0-0.1-0.1-0.1-0.1c-0.1-0.1-0.2-0.2-0.3-0.4c0,0-0.1-0.1-0.1-0.1
	c-0.1-0.1-0.2-0.3-0.3-0.5c-3.1-4.2-4.2-10-1.7-14.7"/>
<path class="st0" d="M17.5,80.4c-2,2.9-1.9,6.8-0.3,9.8c0.3,0.5,0.6,1,0.9,1.5c0.3,0.4,0.6,0.9,1,1.3c0.1,0.2,0.3,0.3,0.5,0.5
	c0,0,0.1,0.1,0.1,0.1c0.2,0.1,0.3,0.3,0.5,0.4c0,0,0,0,0,0c0,0,0,0,0,0c0.2,0.2,0.4,0.3,0.5,0.4c0,0,0.1,0.1,0.1,0.1
	c0.2,0.1,0.4,0.3,0.6,0.4c0,0,0,0,0,0c0.1,0.1,0.2,0.1,0.3,0.2c0,0,0.1,0.1,0.1,0.1c0.1,0.1,0.3,0.2,0.4,0.3c0,0,0,0,0.1,0
	c0.1,0.1,0.2,0.1,0.4,0.2c0,0,0.1,0,0.1,0.1c0.1,0,0.2,0.1,0.3,0.1c0,0,0,0,0,0c0.2,0.1,0.4,0.2,0.5,0.2c0,0,0.1,0,0.1,0
	c0.1,0.1,0.3,0.1,0.4,0.2c0.1,0,0.1,0,0.2,0.1c0.1,0,0.3,0.1,0.4,0.1c0.1,0,0.1,0,0.2,0.1c0.2,0.1,0.4,0.1,0.6,0.2
	c10.4,1.7,12.8-6.3,12.8-6.3c-2.2,3.1-6.4,4.6-10.8,3.4c-0.2-0.1-0.4-0.1-0.6-0.2c-0.1,0-0.1,0-0.2-0.1c-0.1,0-0.3-0.1-0.4-0.1
	c-0.1,0-0.1,0-0.2-0.1c-0.1-0.1-0.3-0.1-0.4-0.2c0,0-0.1,0-0.1-0.1c-0.2-0.1-0.4-0.2-0.5-0.3c-0.1,0-0.2-0.1-0.3-0.1
	c-0.1,0-0.1-0.1-0.2-0.1c-0.1-0.1-0.2-0.1-0.3-0.2c0,0-0.1,0-0.1,0c-0.1-0.1-0.3-0.2-0.4-0.3c0,0-0.1-0.1-0.1-0.1
	c-0.1-0.1-0.2-0.1-0.3-0.2c-0.2-0.1-0.4-0.3-0.6-0.4c0,0-0.1-0.1-0.1-0.1c-2-1.5-3.5-3.7-4.2-6.1c-0.8-2.5-0.6-5.3,0.7-7.5"/>
<path class="st0" d="M24.8,77.8c-1.2,1.7-1.3,3.9-0.5,5.8c0.9,2,2.7,3.7,4.7,4.4c0.1,0,0.2,0.1,0.3,0.1c0,0,0.1,0,0.1,0
	c0.1,0,0.2,0.1,0.4,0.1c5.7,1.1,7.3-2.9,7.7-3.5c-1.4,2-3.7,2.4-6.5,1.8c-0.2-0.1-0.5-0.1-0.7-0.2c-0.3-0.1-0.5-0.2-0.8-0.3
	c-0.5-0.2-1-0.5-1.4-0.9c-2.5-1.9-4.1-5.6-2.4-8.5"/>
<path class="st1" d="M157.9,86l0.2,1c0.1,0.3-0.1,0.5-0.4,0.5"/>
<path class="st1" d="M139.8,84.4c-0.1,0.3-0.1,0.6-0.2,0.8l-2,9.3l2.1-9.8L139.8,84.4z"/>
<polygon class="st1" points="80.2,90.6 79.1,94.5 80.2,90.6 "/>
<path class="st1" d="M158.2,87l-0.6-2.4c-0.5-1.8-1.7-2.6-4.6-2.6h-12.1c-0.3,0-0.6,0.1-0.6,0.4l-4.6,21.8c-0.1,0.3-0.1,0.5,0,0.6
	c0,0.1,0.6,0.1,0.8,0.1h4.2c0.3,0,0.8,0,0.9,0c0.2-0.1,0.2-0.5,0.3-0.8l1.5-7.6l1.8-8.5c0.1-0.3,0.3-0.5,0.6-0.5l12,0
	C158,87.5,158.2,87.2,158.2,87"/>
<path class="st1" d="M175.2,78.1c-0.3,0-5.3,0-5.3,0c-0.3,0-0.6,0.3-0.8,0.5l-9.3,13.7c-0.2,0.2-0.3,0.2-0.4,0l-0.7-3
	c-0.1-0.3-0.3-0.5-0.6-0.5h-6c-0.3,0-0.4,0.2-0.4,0.5l2.7,9.4c0.1,0.3,0.1,0.7,0,1l-1.3,4.8c-0.1,0.3,0.1,0.4,0.4,0.4h5.9
	c0.3,0,0.6-0.1,0.6-0.4l1.3-4.8c0.1-0.3,0.3-0.6,0.4-0.9L177,78.6c0.2-0.2,0.1-0.5-0.1-0.5L175.2,78.1z"/>
<path class="st1" d="M112.8,82h-5.4c-0.3,0-0.6,0.1-0.6,0.4l-1.8,8.4l-1.8,8c-0.1,0.3-0.3,0.3-0.6,0.3H99c-3.5,0-3.1-2.2-2.4-5.6
	c0,0,2.3-11.1,2.3-11.1c0.1-0.3-0.1-0.4-0.4-0.4h-5.2c-0.3,0-0.6,0.1-0.6,0.4l-2.1,11.1c-1,6-1.1,11.3,5.9,11.4c0.1,0,11,0,11,0
	c0.3,0,0.6-0.1,0.6-0.4l2.4-11.1l2.3-11.2C112.8,82.2,112.8,82,112.8,82z"/>
<path class="st1" d="M58.8,82H53c-0.3,0-0.6,0.1-0.6,0.3l-1,4.5c-0.1,0.3,0.1,0.5,0.4,0.5h5.6c0.3,0,0.6-0.3,0.6-0.5l1-4.6
	C58.9,82.2,59,82,58.8,82z"/>
<path class="st1" d="M51.4,88.9c-0.3,0-0.6,0.2-0.6,0.5L50,92.8l-1.7,8c0,0-0.9,4.2-1,4.5c0,0-0.8,3.1-2.7,2.9
	c-0.9-0.1-1.9-0.3-1.9-0.3h0c-0.5-0.2-0.6,0.4-0.6,0.7l-1.2,5c-0.1,0.3,0.1,0.5,0.4,0.5c0,0,2.5,0.4,4.3,0.4h0.3
	c4.4,0,6.7-2.6,8.1-9.5l1.7-8.1l1.6-7.5c0.1-0.3-0.1-0.5-0.4-0.5"/>
<path class="st1" d="M126.5,81.9c-9.8,0-12.1,6-13.4,12c-1.3,6.1-1.2,10.9,8.9,10.9h0.4c4,0,8.9,0,8.9,0c0.3,0,0.5-0.3,0.6-0.5
	l1-3.9c0.1-0.3-0.1-0.4-0.4-0.4h-9.1c-3.3,0-4.5-1-4.4-3.3c0-0.3,0.3-0.9,0.6-0.9h14c0.6,0,0.6-0.4,0.6-0.4
	C135.6,89.1,135.7,81.9,126.5,81.9 M129,91.5c0,0.3-1,0.2-1,0.2l-7.6-0.1c-0.3,0-0.3-0.4-0.4-0.6c0,0,0-0.3,0-0.4
	c0.6-2,2.3-3.2,5.1-3.2c3.1,0,3.8,1.6,3.8,3.3"/>
<path class="st1" d="M84.3,98.6c0,0,2.7-6.6,3.4-10.5C88.5,83,85.9,75.5,76,75.5c-9.9,0-14.2,7.1-15.8,14.8
	c-1.6,7.8,0.5,14.6,10.3,14.5l15,0c0.3,0,0.6-0.2,0.6-0.5l1.3-4.8c0.1-0.3-0.1-0.5-0.4-0.5l-1.2,0l-1.2,0c-0.2,0-0.4-0.2-0.3-0.4
	C84.2,98.7,84.2,98.6,84.3,98.6 M79.1,94.5L78,98.3c-0.1,0.3-0.4,0.4-0.7,0.4h-5.8c-4.4,0-5.5-3.4-4.4-8.5c1.1-5.2,3.2-8.4,7.5-8.7
	c5.9-0.4,7.1,3.7,5.7,8.5L79.1,94.5z"/>
</svg>
