<?xml version="1.0" encoding="utf-8"?>
<!-- Generator: Adobe Illustrator 22.0.0, SVG Export Plug-In . SVG Version: 6.00 Build 0)  -->
<svg version="1.1" id="Layer_1" xmlns="http://www.w3.org/2000/svg" xmlns:xlink="http://www.w3.org/1999/xlink" x="0px" y="0px"
	 viewBox="0 0 185 185" style="enable-background:new 0 0 185 185;" xml:space="preserve">
<style type="text/css">
	.st0{fill:url(#SVGID_1_);}
	.st1{fill:#31C5F0;}
</style>
<g>
	
		<radialGradient id="SVGID_1_" cx="-1050.5018" cy="304.7898" r="0.76" gradientTransform="matrix(112.5883 0 0 -109.0058 118347.4844 33286.1484)" gradientUnits="userSpaceOnUse">
		<stop  offset="0" style="stop-color:#34364E;stop-opacity:0.98"/>
		<stop  offset="1" style="stop-color:#0C0824"/>
	</radialGradient>
	<path class="st0" d="M36.2,37.7h112.6v109.5H36.2V37.7z"/>
	<path class="st1" d="M36.2,37.7h112.6v109.5H36.2V37.7z M31.1,152.4h122.8V32.6H31.1V152.4z M113.9,81.8c-4,0-5.4,2-5.4,3.7
		c0,1.8,0.9,3.1,6.3,5.9c8,3.9,10.5,7.6,10.5,13.1c0,8.2-6.2,12.6-14.7,12.6c-4.5,0-8.3-0.9-10.5-2.2c-0.4-0.2-0.4-0.4-0.4-0.8v-7.5
		c0-0.5,0.3-0.7,0.6-0.4c3.2,2.1,6.9,3,10.3,3c4,0,5.7-1.7,5.7-4c0-1.8-1.2-3.5-6.3-6.1c-7.3-3.5-10.3-7-10.3-12.9
		c0-6.6,5.2-12.1,14.1-12.1c4.4,0,7.5,0.7,9.2,1.4c0.4,0.3,0.5,0.7,0.5,1v7c0,0.4-0.3,0.7-0.8,0.5C120.5,82.6,117.2,81.8,113.9,81.8
		L113.9,81.8z M69.9,87.8c1.2,0.1,2.1,0.1,4.1,0.1c6,0,11.6-2.1,11.6-10.2c0-6.5-4-9.8-10.8-9.8c-2,0-4,0.1-4.9,0.2V87.8z
		 M60.8,60.7c0-0.4,0.7-0.6,1.1-0.6c3.3-0.2,8.1-0.3,13.2-0.3c14.2,0,19.7,7.8,19.7,17.7c0,13-9.4,18.6-21,18.6
		c-1.9,0-2.6-0.1-4-0.1v19.7c0,0.4-0.2,0.6-0.6,0.6h-7.8c-0.4,0-0.6-0.2-0.6-0.6L60.8,60.7L60.8,60.7z"/>
</g>
</svg>
